# xmcd
#
# Track frame offsets:
# 150
# 17213
# 31049
# 49570
# 63603
# 78126
# 90217
# 106745
# 116989
# 131913
# 146836
# 164244
#
# Disc length: 2393 seconds
#
#
# Revision: 2
# Processed by: cddbd v1.5.2PL0 Copyright (c) Steve Scherf et al.
# Submitted via: FreeRIP 2.30 
#
DISCID=9f09570c
DTITLE=Die Lollipops - Reiterferien sind der Hit
DYEAR=2006
DGENRE=Kinder
TTITLE0=Reiterferien sind der Hit
TTITLE1=Mein kleines, süsses Fohlen
TTITLE2=Jede Hürde
TTITLE3=Yo, wir geh´n zum Rodeo
TTITLE4=Unsere Lissy
TTITLE5=Ich will ´nen Cowboy als Freund
TTITLE6=Hüh - Das sture Pony
TTITLE7=Ich reite so gern
TTITLE8=Der wilde wilde Westen
TTITLE9=Ich will ein Pferd
TTITLE10=Auf und ab
TTITLE11=Das Glück dieser Erde
EXTD=
EXTT0=
EXTT1=
EXTT2=
EXTT3=
EXTT4=
EXTT5=
EXTT6=
EXTT7=
EXTT8=
EXTT9=
EXTT10=
EXTT11=
PLAYORDER=
